<svg width="3" height="6" viewBox="0 0 3 6" fill="none" xmlns="http://www.w3.org/2000/svg">
<path d="M2.92184 0C2.94755 0.0557333 2.99378 0.110667 2.99526 0.166933C3.00293 0.441867 2.996 0.7176 2.99996 0.9928C3.00169 1.11573 2.94829 1.15707 2.84224 1.1576C2.65707 1.15893 2.47191 1.16187 2.28724 1.17333C2.11592 1.184 2.01951 1.2816 2.01135 1.46693C2.00146 1.692 2.00888 1.91787 2.00888 2.16027C2.26574 2.16027 2.51542 2.16027 2.76511 2.16027C2.94755 2.16027 2.9693 2.184 2.96955 2.38267C2.96955 2.64027 2.96955 2.89787 2.96955 3.1552C2.96955 3.36293 2.94829 3.38613 2.7609 3.38613C2.51468 3.38613 2.26845 3.38613 2.00666 3.38613C2.00666 3.44347 2.00666 3.49067 2.00666 3.53787C2.00666 4.28827 2.00863 5.03867 2.00344 5.78907C2.00295 5.85947 1.95721 5.9296 1.93249 6H0.918916C0.835358 5.95707 0.840302 5.876 0.840302 5.79493C0.840796 5.04907 0.840549 4.30293 0.840549 3.55707C0.840549 3.50507 0.840549 3.45307 0.840549 3.3864C0.610146 3.3864 0.393093 3.38693 0.176286 3.3864C0.0247444 3.38613 0.00175353 3.36293 0.00125911 3.20373C0.000270253 2.9104 0.00323682 2.61733 2.30396e-05 2.32427C-0.00121303 2.20373 0.0472408 2.15707 0.156509 2.15893C0.37826 2.16267 0.600257 2.16 0.840549 2.16C0.840549 2.012 0.834369 1.8712 0.842032 1.7312C0.855382 1.48427 0.848707 1.23093 0.900869 0.993067C1.02126 0.445067 1.41977 0.0904 1.93842 0.0234667C1.96191 0.0205333 1.98416 0.008 2.0069 0C2.31196 0 2.61678 0 2.92184 0Z" fill="#1D4B98"/>
</svg>
