<svg width="6" height="6" viewBox="0 0 6 6" fill="none" xmlns="http://www.w3.org/2000/svg">
<path d="M5.99986 3.06738C5.99986 2.86988 5.98198 2.68238 5.95133 2.49988H3.06502V3.62737H4.71762C4.64355 3.99737 4.42644 4.30987 4.1046 4.52237V5.27236H5.09054C5.66781 4.74986 5.99986 3.97987 5.99986 3.06738Z" fill="#4285F4"/>
<path d="M3.0652 5.99991C3.89278 5.99991 4.58498 5.72992 5.09072 5.27242L4.10478 4.52242C3.82892 4.70242 3.47899 4.81242 3.0652 4.81242C2.26571 4.81242 1.58884 4.28493 1.34618 3.57243H0.329587V4.34493C0.832776 5.32492 1.86725 5.99991 3.0652 5.99991Z" fill="#34A853"/>
<path d="M1.34609 3.57245C1.28224 3.39245 1.24903 3.19995 1.24903 2.99996C1.24903 2.79996 1.28479 2.60746 1.34609 2.42746V1.65497H0.329499C0.12005 2.05996 0 2.51496 0 2.99996C0 3.48495 0.12005 3.93995 0.329499 4.34495L1.34609 3.57245Z" fill="#FBBC05"/>
<path d="M3.0652 1.18749C3.5173 1.18749 3.92087 1.33999 4.24016 1.63749L5.11371 0.782494C4.58498 0.297498 3.89278 0 3.0652 0C1.86725 0 0.832776 0.674995 0.329587 1.65499L1.34618 2.42748C1.58884 1.71499 2.26572 1.18749 3.0652 1.18749Z" fill="#EA4335"/>
</svg>
