<svg width="5" height="6" viewBox="0 0 5 6" fill="none" xmlns="http://www.w3.org/2000/svg">
<path d="M0.633095 2.14515C0.633095 1.90876 0.63292 1.67737 0.633095 1.44599C0.633796 0.850815 0.980691 0.315321 1.52801 0.108593C2.2155 -0.151024 3.04051 0.0460559 3.41824 0.795068C3.51863 0.994114 3.56997 1.20638 3.56997 1.4308C3.56997 1.66683 3.56997 1.90286 3.56997 2.13872C3.63251 2.15104 3.69296 2.15801 3.75025 2.17534C4.01953 2.257 4.19876 2.50179 4.19911 2.78838C4.19981 3.46146 4.20086 4.13453 4.19876 4.80761C4.19683 5.39277 3.74359 5.91219 3.17314 5.98669C3.1148 5.99438 3.05576 5.99902 2.99706 5.9992C2.40051 6.0001 1.80395 6.00027 1.20722 5.99956C0.581761 5.99884 0.0735073 5.53196 0.00640584 4.89641C0.00202585 4.85442 0.00325224 4.8119 0.00325224 4.76955C0.00307704 4.12328 0.0106106 3.47682 9.86494e-05 2.83073C-0.00568294 2.48124 0.243101 2.15962 0.632569 2.14551L0.633095 2.14515ZM2.10284 2.57558C1.62648 2.57558 1.15028 2.57558 0.673916 2.57558C0.504849 2.57558 0.422855 2.65777 0.422855 2.82769C0.422855 3.47164 0.422155 4.11559 0.422855 4.75954C0.423556 5.22232 0.76502 5.57091 1.21844 5.57163C1.80833 5.57252 2.39823 5.57252 2.98813 5.57091C3.04875 5.57091 3.11077 5.5643 3.16964 5.55001C3.54018 5.46013 3.77933 5.1512 3.78003 4.76222C3.78108 4.12042 3.78038 3.47879 3.78021 2.83698C3.78021 2.6567 3.70084 2.5754 3.52494 2.5754C3.05085 2.5754 2.57676 2.5754 2.10267 2.5754L2.10284 2.57558ZM3.14791 2.14551C3.14791 1.88392 3.16438 1.62681 3.14423 1.37273C3.11024 0.945871 2.88529 0.649625 2.49126 0.495785C2.30152 0.421813 2.10267 0.425029 1.90329 0.447363C1.48456 0.494177 1.10018 0.87583 1.06741 1.30465C1.04657 1.57928 1.05725 1.85623 1.0541 2.1321C1.0541 2.13568 1.05813 2.13943 1.06163 2.14551H3.14809H3.14791Z" fill="#828282"/>
<path d="M2.09813 3.21593C2.28139 3.21468 2.43784 3.32706 2.49811 3.5027C2.55855 3.67924 2.50231 3.87114 2.3534 3.98459C2.32221 4.00836 2.3096 4.03177 2.30995 4.07179C2.31205 4.28102 2.31117 4.49025 2.31082 4.69948C2.31065 4.8351 2.2241 4.92944 2.10111 4.92944C1.97864 4.92944 1.89192 4.83456 1.89174 4.6993C1.89139 4.49454 1.89017 4.28977 1.8928 4.08501C1.89332 4.03873 1.88211 4.00889 1.84427 3.97995C1.6985 3.8681 1.64471 3.67709 1.70446 3.5027C1.76402 3.32921 1.91785 3.21718 2.09795 3.21593H2.09813Z" fill="#828282"/>
</svg>
