<svg width="7" height="6" viewBox="0 0 7 6" fill="none" xmlns="http://www.w3.org/2000/svg">
<path d="M6.02277 5.02411C5.93567 5.38117 5.70262 5.62585 5.39643 5.80105C5.11484 5.96229 4.80367 6.02147 4.4792 5.99321C3.84388 5.93802 3.27572 5.69434 2.74081 5.36255C2.21886 5.03874 1.76772 4.63049 1.34817 4.18501C1.01272 3.82928 0.694233 3.45993 0.435918 3.04303C0.243096 2.73119 0.084184 2.4034 0.0293294 2.0377C-0.0730657 1.35518 0.0891708 0.747454 0.570893 0.239468C0.712185 0.0905298 0.882068 -0.00355407 1.09484 0.000102902C1.25175 0.00309497 1.39338 0.0519654 1.50542 0.162339C1.81127 0.463541 2.11746 0.765074 2.416 1.07359C2.64306 1.3083 2.63376 1.69128 2.4037 1.9383C2.3023 2.04734 2.19492 2.15107 2.0882 2.25512C2.05895 2.28371 2.05163 2.30333 2.07358 2.34356C2.45124 3.0427 2.98815 3.58094 3.68796 3.95761C3.72752 3.97889 3.7478 3.9739 3.77673 3.94398C3.87081 3.84657 3.96689 3.75149 4.0633 3.65641C4.34289 3.38081 4.72687 3.38147 5.00513 3.6584C5.24284 3.89511 5.47722 4.13481 5.71725 4.36885C5.85455 4.50283 5.9852 4.6378 6.0231 4.83561V5.02378L6.02277 5.02411ZM4.65639 5.62718C4.71158 5.61887 4.80666 5.60624 4.90075 5.58928C5.20028 5.53509 5.42236 5.36554 5.58759 5.11687C5.66538 4.99985 5.68101 4.85756 5.54936 4.73056C5.27542 4.46659 5.01012 4.19398 4.74084 3.92503C4.60852 3.79305 4.45725 3.79371 4.32361 3.92669C4.20692 4.04305 4.09089 4.15974 3.9742 4.2761C3.86748 4.38248 3.73484 4.40808 3.60319 4.3376C3.28104 4.16572 2.97452 3.96958 2.69792 3.72888C2.27936 3.36485 1.95755 2.92701 1.6989 2.43963C1.62377 2.29768 1.64471 2.16835 1.75874 2.05399C1.87643 1.93597 1.99545 1.81928 2.11214 1.70026C2.23648 1.5736 2.23515 1.41934 2.11114 1.295C1.83255 1.01608 1.55395 0.737148 1.27469 0.458886C1.16964 0.354164 1.02602 0.343193 0.914316 0.436945C0.847161 0.493129 0.779673 0.553635 0.728143 0.623782C0.400678 1.06761 0.299613 1.56096 0.427607 2.09721C0.515374 2.46523 0.701214 2.78738 0.9203 3.09057C1.29963 3.61585 1.74345 4.08361 2.22783 4.51181C2.62179 4.85988 3.05464 5.15211 3.53902 5.36188C3.88278 5.51082 4.23917 5.61089 4.65673 5.62618L4.65639 5.62718Z" fill="#828282"/>
<path d="M5.48094 2.33821C5.48227 2.45955 5.40846 2.54466 5.31371 2.5523C5.20866 2.56062 5.12621 2.4918 5.1066 2.38575C4.97295 1.66366 4.54442 1.19889 3.85691 0.963518C3.78909 0.940246 3.71628 0.930273 3.64514 0.917307C3.53875 0.898025 3.46694 0.804274 3.48323 0.701878C3.49952 0.599483 3.59893 0.529004 3.70332 0.545626C4.5534 0.680934 5.26218 1.34185 5.45334 2.17896C5.46697 2.23814 5.47429 2.29831 5.48094 2.33821V2.33821Z" fill="#828282"/>
<path d="M3.52153 1.32857C3.64122 1.34054 3.76821 1.38442 3.88956 1.44526C4.3151 1.65836 4.59103 1.99314 4.70905 2.45525C4.72002 2.49814 4.72767 2.54501 4.72268 2.58856C4.71204 2.68364 4.62827 2.75279 4.53684 2.75146C4.44342 2.75047 4.36829 2.68364 4.352 2.58657C4.28285 2.17931 3.93145 1.80564 3.52818 1.71056C3.50358 1.70491 3.47798 1.70225 3.45338 1.69593C3.35764 1.67133 3.2938 1.58123 3.3071 1.49081C3.32173 1.39174 3.40252 1.32525 3.52153 1.32824V1.32857Z" fill="#828282"/>
</svg>
