<svg viewBox="0 0 6 6" fill="none" xmlns="http://www.w3.org/2000/svg">
<path d="M2.57714 5.5378C3.09075 5.52874 3.61635 5.47403 4.11757 5.27754C4.27064 5.21743 4.41675 5.14423 4.5379 5.02941C4.61027 4.96083 4.64472 4.88127 4.63949 4.77917C4.61201 4.24169 4.41811 3.77645 4.03939 3.3902C3.97707 3.32682 3.9343 3.25728 3.95153 3.16577C3.96875 3.07369 4.02197 3.00935 4.11428 2.98141C4.20988 2.95232 4.28903 2.9818 4.35753 3.0498C4.59595 3.28695 4.78096 3.56011 4.91023 3.86969C5.02692 4.14903 5.0844 4.44108 5.10414 4.74333C5.12446 5.05407 4.9859 5.27869 4.74651 5.45554C4.46842 5.66109 4.14892 5.77321 3.81703 5.85335C3.21847 5.99803 2.61197 6.03116 1.99967 5.97106C1.53929 5.92578 1.08954 5.83678 0.66883 5.63701C0.569167 5.58981 0.47318 5.5324 0.382419 5.46999C0.105877 5.28062 -0.026104 5.02556 0.00427879 4.68265C0.0600128 4.05348 0.296496 3.51003 0.7414 3.05808C0.818615 2.97968 0.921762 2.95887 1.01272 3.00029C1.10328 3.04152 1.1627 3.13379 1.14489 3.23358C1.13541 3.28675 1.10735 3.34474 1.06981 3.38346C0.74798 3.71558 0.552524 4.10799 0.487307 4.56475C0.480921 4.60983 0.482469 4.65645 0.473374 4.70076C0.437959 4.87375 0.508014 4.99762 0.647156 5.09549C0.873962 5.2548 1.13154 5.33957 1.39647 5.40564C1.77732 5.50062 2.1661 5.53356 2.57714 5.53761V5.5378Z" fill="#828282"/>
<path d="M0.931297 1.61031C0.930909 0.721067 1.65661 0 2.55223 0C3.46081 0 4.17587 0.720874 4.17548 1.6369C4.1751 2.50765 3.44204 3.22968 2.55842 3.22949C1.65448 3.22929 0.931684 2.50996 0.93149 1.61012L0.931297 1.61031ZM1.39459 1.61031C1.39536 2.24739 1.91748 2.76926 2.55262 2.76772C3.1924 2.76618 3.71181 2.24835 3.712 1.61166C3.71219 0.97921 3.1864 0.460034 2.547 0.460997C1.91922 0.461961 1.39401 0.98576 1.39459 1.6105V1.61031Z" fill="#fff"/>
</svg>
