<svg width="7" height="6" viewBox="0 0 7 6" fill="none" xmlns="http://www.w3.org/2000/svg">
<path d="M3.49864 6C2.62626 6 1.75389 6 0.881512 6C0.374181 5.99979 0 5.5978 0 5.05284C0 3.68324 0 2.31384 0 0.944238C0 0.400737 0.375347 0 0.884233 0C2.62898 0 4.37374 0 6.11849 0C6.62601 0 7 0.401781 7 0.946951C7 2.31655 7 3.68595 7 5.05555C7 5.59926 6.62504 5.99979 6.11596 5.99979C5.24359 6 4.37121 5.99979 3.49883 5.99979L3.49864 6ZM6.53388 1.71274C6.4987 1.73569 6.4742 1.75072 6.45029 1.76721C5.52349 2.40547 4.5963 3.04289 3.67105 3.68345C3.5519 3.76589 3.44791 3.76505 3.32836 3.6824C2.39884 3.03851 1.46718 2.39816 0.535905 1.75698C0.516467 1.74363 0.495668 1.73215 0.466317 1.7142V1.80833C0.466317 2.87842 0.466317 3.94852 0.466317 5.01861C0.466317 5.33043 0.625319 5.50054 0.916694 5.50075C2.63968 5.50075 4.36246 5.50075 6.08544 5.50075C6.37604 5.50075 6.53388 5.33023 6.53388 5.01652C6.53388 4.04014 6.53388 3.06376 6.53388 2.08738C6.53388 1.96758 6.53388 1.84798 6.53388 1.71294V1.71274ZM3.50272 0.499461C3.18433 0.499461 2.86593 0.499461 2.54773 0.499461C1.99356 0.499461 1.43958 0.499043 0.885399 0.49967C0.691214 0.499878 0.532211 0.615299 0.486727 0.798553C0.468455 0.872648 0.474286 0.953213 0.465539 1.03023C0.45893 1.0893 0.480118 1.12269 0.527352 1.15525C1.49789 1.82148 2.46765 2.48937 3.43624 3.15894C3.48445 3.19233 3.51633 3.19233 3.56473 3.15894C4.51933 2.49897 5.47451 1.84005 6.43202 1.18489C6.50841 1.1325 6.53854 1.0799 6.5364 0.981389C6.52941 0.669357 6.37507 0.499461 6.08369 0.499252C5.22337 0.499252 4.36305 0.499252 3.50292 0.499252L3.50272 0.499461Z" fill="#828282"/>
</svg>
